<?xml version="1.0" encoding="utf-8"?>
<!-- Generator: Adobe Illustrator 27.6.1, SVG Export Plug-In . SVG Version: 6.00 Build 0)  -->
<svg version="1.1" id="Ebene_1" xmlns="http://www.w3.org/2000/svg" xmlns:xlink="http://www.w3.org/1999/xlink" x="0px" y="0px"
	 viewBox="0 0 238.8 155.2" style="enable-background:new 0 0 238.8 155.2;" xml:space="preserve">
<style type="text/css">
	.st0{fill:#575756;}
	.st1{fill:#AFCA0B;}
	.st2{fill:#879D0D;}
	.st3{fill:#DADA00;}
</style>
<g>
	<g>
		<path class="st0" d="M31.3,147.6h1.4l2.3,3.6l2.3-3.6h1.4v7.6h-1.3v-5.4l-2.4,3.6h0l-2.4-3.6v5.4h-1.3L31.3,147.6L31.3,147.6z"/>
		<path class="st0" d="M47.2,147.6h5.6v1.2h-4.3v2h3.8v1.2h-3.8v2h4.3v1.2h-5.7L47.2,147.6L47.2,147.6z"/>
		<path class="st0" d="M61,147.6h2.8c0.6,0,1.1,0.1,1.6,0.3c0.5,0.2,0.9,0.5,1.3,0.8s0.6,0.7,0.8,1.2s0.3,1,0.3,1.5v0
			c0,0.5-0.1,1-0.3,1.5c-0.2,0.5-0.5,0.9-0.8,1.2c-0.4,0.3-0.8,0.6-1.3,0.8c-0.5,0.2-1,0.3-1.6,0.3H61V147.6z M63.8,154
			c0.4,0,0.8-0.1,1.1-0.2s0.6-0.3,0.8-0.5c0.2-0.2,0.4-0.5,0.5-0.8c0.1-0.3,0.2-0.6,0.2-1v0c0-0.4-0.1-0.7-0.2-1
			c-0.1-0.3-0.3-0.6-0.5-0.8c-0.2-0.2-0.5-0.4-0.8-0.5c-0.3-0.1-0.7-0.2-1.1-0.2h-1.5v5.1L63.8,154L63.8,154z"/>
		<path class="st0" d="M76.1,147.6h1.3v7.6h-1.3V147.6z"/>
		<path class="st0" d="M85.9,147.6h5.6v1.2h-4.3v2h3.8v1.2h-3.8v2h4.3v1.2h-5.7L85.9,147.6L85.9,147.6z"/>
		<path class="st0" d="M99.7,147.6h1.2l4.1,5.2v-5.2h1.3v7.6h-1.1l-4.2-5.4v5.4h-1.3C99.7,155.2,99.7,147.6,99.7,147.6z"/>
		<path class="st0" d="M117.5,147.6h1.2l3.3,7.6h-1.4l-0.8-1.8h-3.6l-0.8,1.8h-1.4L117.5,147.6z M119.4,152.2l-1.3-3l-1.3,3H119.4z"
			/>
		<path class="st0" d="M133.1,155.4c-0.6,0-1.1-0.1-1.6-0.3c-0.5-0.2-0.9-0.5-1.2-0.8c-0.3-0.4-0.6-0.8-0.8-1.2
			c-0.2-0.5-0.3-1-0.3-1.5v0c0-0.5,0.1-1,0.3-1.5c0.2-0.5,0.5-0.9,0.8-1.2s0.8-0.6,1.2-0.9c0.5-0.2,1-0.3,1.6-0.3
			c0.3,0,0.6,0,0.9,0.1s0.5,0.1,0.8,0.2c0.2,0.1,0.4,0.2,0.7,0.3c0.2,0.1,0.4,0.3,0.6,0.4l-0.9,1c-0.1-0.1-0.3-0.2-0.4-0.3
			c-0.1-0.1-0.3-0.2-0.5-0.3c-0.2-0.1-0.4-0.1-0.6-0.2c-0.2,0-0.4-0.1-0.7-0.1c-0.4,0-0.7,0.1-1,0.2s-0.6,0.3-0.8,0.6
			s-0.4,0.5-0.5,0.9s-0.2,0.7-0.2,1v0c0,0.4,0.1,0.8,0.2,1.1s0.3,0.6,0.5,0.9s0.5,0.4,0.8,0.6c0.3,0.1,0.7,0.2,1.1,0.2
			c0.4,0,0.7-0.1,1-0.2c0.3-0.1,0.6-0.2,0.8-0.4v-1.4H133V151h3.2v3.2c-0.2,0.2-0.4,0.3-0.6,0.5c-0.2,0.1-0.5,0.3-0.7,0.4
			c-0.3,0.1-0.6,0.2-0.9,0.3C133.7,155.3,133.4,155.4,133.1,155.4z"/>
		<path class="st0" d="M144.5,147.6h5.6v1.2h-4.3v2h3.8v1.2h-3.8v2h4.4v1.2h-5.7L144.5,147.6L144.5,147.6z"/>
		<path class="st0" d="M158.3,147.6h1.2l4.1,5.2v-5.2h1.3v7.6h-1.1l-4.2-5.4v5.4h-1.3L158.3,147.6L158.3,147.6z"/>
		<path class="st0" d="M175.2,148.9h-2.4v-1.2h6.2v1.2h-2.4v6.4h-1.3L175.2,148.9L175.2,148.9z"/>
		<path class="st0" d="M190,155.3c-0.5,0-0.9-0.1-1.3-0.2c-0.4-0.1-0.7-0.4-1-0.6s-0.5-0.6-0.6-1.1s-0.2-0.9-0.2-1.4v-4.4h1.3v4.3
			c0,0.7,0.2,1.2,0.5,1.6s0.8,0.6,1.4,0.6c0.6,0,1.1-0.2,1.4-0.5s0.5-0.9,0.5-1.6v-4.4h1.3v4.3c0,0.6-0.1,1.1-0.2,1.5
			c-0.2,0.4-0.4,0.8-0.7,1.1c-0.3,0.3-0.6,0.5-1,0.6C191,155.3,190.5,155.3,190,155.3z"/>
		<path class="st0" d="M201.6,147.6h3.4c0.5,0,0.9,0.1,1.3,0.2s0.7,0.3,0.9,0.6c0.2,0.2,0.4,0.4,0.5,0.7s0.2,0.6,0.2,0.9v0
			c0,0.6-0.2,1.1-0.5,1.5s-0.8,0.6-1.3,0.8l2.1,2.9h-1.6l-1.9-2.6h0H203v2.6h-1.3L201.6,147.6L201.6,147.6z M204.9,151.4
			c0.5,0,0.9-0.1,1.1-0.3s0.4-0.5,0.4-0.9v0c0-0.4-0.1-0.7-0.4-0.9c-0.3-0.2-0.7-0.3-1.2-0.3H203v2.5H204.9z"/>
	</g>
	<g>
		<path class="st0" d="M0,117h3.4l7.8,10.2V117h3.6v16.6h-3.1l-8-10.6v10.6H0V117z"/>
		<path class="st0" d="M32.5,133.9c-1.3,0-2.5-0.2-3.5-0.7c-1.1-0.4-2-1.1-2.8-1.8c-0.8-0.8-1.4-1.7-1.8-2.7s-0.7-2.1-0.7-3.3v-0.1
			c0-1.2,0.2-2.3,0.7-3.3c0.4-1,1.1-1.9,1.8-2.7s1.7-1.4,2.8-1.9c1.1-0.4,2.3-0.7,3.5-0.7s2.5,0.2,3.5,0.7c1.1,0.4,2,1.1,2.8,1.8
			c0.8,0.8,1.4,1.7,1.8,2.7c0.4,1,0.7,2.1,0.7,3.3v0.1c0,1.2-0.2,2.3-0.7,3.3c-0.4,1-1.1,1.9-1.8,2.7s-1.7,1.4-2.8,1.9
			S33.8,133.9,32.5,133.9z M32.5,130.5c0.7,0,1.4-0.1,2-0.4c0.6-0.3,1.1-0.6,1.6-1.1c0.4-0.5,0.8-1,1-1.6c0.2-0.6,0.4-1.3,0.4-2
			v-0.1c0-0.7-0.1-1.4-0.4-2c-0.2-0.6-0.6-1.2-1-1.7s-1-0.9-1.6-1.1s-1.3-0.4-2-0.4c-0.7,0-1.4,0.1-2,0.4c-0.6,0.3-1.1,0.6-1.6,1.1
			c-0.4,0.5-0.8,1-1,1.6c-0.2,0.6-0.4,1.3-0.4,2v0.1c0,0.7,0.1,1.4,0.4,2c0.2,0.6,0.6,1.2,1,1.7s1,0.9,1.6,1.1
			C31.1,130.3,31.8,130.5,32.5,130.5z"/>
		<path class="st0" d="M47.8,117h4l4.3,11.7l4.3-11.7h3.9l-6.7,16.7h-3.2L47.8,117z"/>
		<path class="st0" d="M76,116.8h3.4l7.1,16.7h-3.8l-1.5-3.7h-7l-1.5,3.7h-3.7L76,116.8z M79.9,126.6l-2.2-5.4l-2.2,5.4H79.9z"/>
		<path class="st0" d="M101.7,133.9c-1.3,0-2.5-0.2-3.6-0.6c-1.1-0.4-2-1-2.8-1.8c-0.8-0.8-1.4-1.7-1.8-2.7c-0.4-1-0.6-2.2-0.6-3.4
			v-0.1c0-1.2,0.2-2.3,0.7-3.3c0.4-1,1-1.9,1.8-2.7c0.8-0.8,1.7-1.4,2.8-1.9c1.1-0.4,2.2-0.7,3.5-0.7c0.7,0,1.4,0.1,2,0.1
			c0.6,0.1,1.2,0.2,1.7,0.4c0.5,0.2,1,0.4,1.5,0.7c0.5,0.3,0.9,0.6,1.3,1l-2.3,2.8c-0.3-0.3-0.6-0.5-0.9-0.7c-0.3-0.2-0.6-0.4-1-0.5
			c-0.3-0.1-0.7-0.2-1.1-0.3s-0.8-0.1-1.3-0.1c-0.7,0-1.3,0.1-1.9,0.4c-0.6,0.3-1.1,0.6-1.5,1.1c-0.4,0.5-0.8,1-1,1.6
			c-0.2,0.6-0.4,1.3-0.4,2v0.1c0,0.8,0.1,1.5,0.4,2.1c0.2,0.6,0.6,1.2,1,1.7c0.4,0.5,1,0.8,1.6,1.1c0.6,0.3,1.3,0.4,2,0.4
			c0.7,0,1.3-0.1,1.9-0.2s1.1-0.4,1.6-0.8v-2.4h-3.7V124h7.2v7.2c-0.9,0.7-1.9,1.4-3.1,1.9C104.6,133.6,103.2,133.9,101.7,133.9z"/>
		<path class="st0" d="M118,117h7.6c2.1,0,3.7,0.6,4.8,1.7c0.9,0.9,1.4,2.2,1.4,3.8v0.1c0,1.3-0.3,2.4-1,3.3
			c-0.7,0.9-1.5,1.5-2.6,1.9l4.1,5.9h-4.3l-3.6-5.3h0h-2.8v5.3H118V117z M125.3,125.1c0.9,0,1.6-0.2,2.1-0.6c0.5-0.4,0.7-1,0.7-1.7
			v-0.1c0-0.8-0.2-1.4-0.8-1.8s-1.2-0.6-2.1-0.6h-3.6v4.8L125.3,125.1L125.3,125.1z"/>
		<path class="st0" d="M146.5,116.8h3.4l7.1,16.7h-3.8l-1.5-3.7h-7l-1.5,3.7h-3.7L146.5,116.8z M150.4,126.6l-2.2-5.4l-2.2,5.4
			H150.4z"/>
		<path class="st0" d="M165.2,117h6.8c1,0,1.9,0.1,2.7,0.4c0.8,0.3,1.4,0.7,2,1.2c0.5,0.5,1,1.1,1.3,1.8c0.3,0.7,0.4,1.5,0.4,2.3
			v0.1c0,1-0.2,1.8-0.5,2.5c-0.4,0.7-0.8,1.3-1.4,1.8c-0.6,0.5-1.3,0.9-2.1,1.1c-0.8,0.2-1.7,0.4-2.6,0.4h-2.8v5h-3.6L165.2,117
			L165.2,117z M171.8,125.3c0.9,0,1.6-0.2,2.1-0.7c0.5-0.5,0.8-1.1,0.8-1.8v-0.1c0-0.8-0.3-1.4-0.8-1.9c-0.5-0.4-1.2-0.6-2.2-0.6
			h-2.8v5.1L171.8,125.3L171.8,125.3z"/>
		<path class="st0" d="M186.8,117h3.6v6.6h6.7V117h3.6v16.6h-3.6v-6.7h-6.7v6.7h-3.6V117z"/>
		<path class="st0" d="M210.7,117h3.6v16.6h-3.6V117z"/>
		<path class="st0" d="M228.7,125.1l-5.6-8.2h4.3l3.5,5.4l3.5-5.4h4.1l-5.5,8.1l5.8,8.5h-4.3l-3.7-5.7l-3.8,5.7h-4.1L228.7,125.1z"
			/>
	</g>
	<g>
		<path class="st1" d="M119.4,98.1c-27.1,0-49.1-22-49.1-49.1s22-49,49.1-49s49.1,22,49.1,49C168.5,76.1,146.4,98.1,119.4,98.1z
			 M119.4,3.2C94.1,3.2,73.5,23.8,73.5,49c0,25.3,20.6,45.9,45.9,45.9s45.9-20.6,45.9-45.9C165.3,23.8,144.7,3.2,119.4,3.2z"/>
	</g>
	<path class="st1" d="M161.5,49c0-6.1-1.3-12-3.7-17.2h-17v48.4l-38.6-48.4H81c-2.4,5.3-3.7,11.1-3.7,17.2
		c0,12.4,5.4,23.6,13.9,31.3V49.7l32.8,41.2C145.1,88.6,161.5,70.7,161.5,49z"/>
	<path class="st2" d="M78.9,37.4L91.1,61l0.2-11.7L79.6,35.2C79.3,36.2,79.1,36.8,78.9,37.4z"/>
	<path class="st2" d="M141.1,69l-0.1,11.3l2.6,3.2c1.2-0.9,2.4-1.8,3.5-2.8L141.1,69z"/>
	<path class="st3" d="M140.9,80.2L140.9,80.2l-2.5-3l-13.7-17l0-0.3l-22.4-28.1H81c-0.5,1.1-0.9,2.2-1.3,3.4l44.4,55.7
		c7.2-0.8,13.8-3.4,19.5-7.4L140.9,80.2z"/>
	<path class="st2" d="M145.5,86.7c-7.4,5.2-16.4,8.2-26.1,8.2c-25.3,0-45.9-20.6-45.9-45.9c0-6.1,1.2-11.8,3.3-17.2L74.6,29
		c-2.8,6.1-4.3,12.9-4.3,20c0,27.1,22,49.1,49.1,49.1c10.4,0,20.1-3.3,28.1-8.9L145.5,86.7z"/>
	<path class="st3" d="M145.5,86.7c-5.5,3.8-11.8,6.4-18.6,7.6l2.3,2.8c6.7-1.4,12.9-4.1,18.2-7.9L145.5,86.7z"/>
</g>
</svg>
